<svg xmlns="http://www.w3.org/2000/svg" width="64" height="64" viewBox="0 0 64 64">
  <defs>
    <linearGradient id="bg" x1="0%" y1="0%" x2="100%" y2="100%">
      <stop offset="0%" stop-color="#6366f1"/>
      <stop offset="100%" stop-color="#818cf8"/>
    </linearGradient>
  </defs>
  <rect width="64" height="64" rx="14" fill="url(#bg)"/>
  <g transform="translate(16, 16)" stroke="#fff" stroke-width="2.2" stroke-linecap="round" stroke-linejoin="round" fill="none">
    <path d="M15.562 3.266a.5.5 0 0 1 .876 0L19.39 8.87a1 1 0 0 0 1.516.294L25.183 5.5a.5.5 0 0 1 .798.519l-2.834 10.246a1 1 0 0 1-.956.734H9.81a1 1 0 0 1-.957-.734L6.02 6.02a.5.5 0 0 1 .798-.519l4.276 3.664a1 1 0 0 0 1.516-.294z"/>
    <path d="M9 21h14"/>
  </g>
</svg>
